<svg xmlns="http://www.w3.org/2000/svg" width="80.461" height="78.478" viewBox="0 0 80.461 78.478">
  <path id="github" d="M40.23,0A40.235,40.235,0,0,0,27.514,78.406c2.008.372,2.659-.875,2.659-1.934v-7.49c-11.191,2.434-13.521-4.747-13.521-4.747-1.83-4.65-4.469-5.887-4.469-5.887-3.651-2.5.278-2.444.278-2.444,4.04.282,6.165,4.147,6.165,4.147,3.587,6.149,9.411,4.372,11.707,3.343a8.535,8.535,0,0,1,2.555-5.378C23.954,56.994,14.56,53.544,14.56,38.132a15.571,15.571,0,0,1,4.144-10.8A14.471,14.471,0,0,1,19.1,16.686s3.379-1.08,11.067,4.124a38.131,38.131,0,0,1,20.145,0c7.681-5.2,11.053-4.124,11.053-4.124,2.189,5.542.811,9.635.4,10.648a15.529,15.529,0,0,1,4.14,10.8c0,15.452-9.411,18.855-18.368,19.851,1.442,1.247,2.759,3.695,2.759,7.449v11.04c0,1.069.644,2.327,2.685,1.931A40.238,40.238,0,0,0,40.23,0Z" fill="#fff"/>
</svg>
